<svg width="151" height="42" viewBox="0 0 151 42" fill="none" xmlns="http://www.w3.org/2000/svg">
<g filter="url(#filter0_d)">
<path d="M4.87646 6.81818V33H8.63499V14.0412H8.87789L16.5995 32.9616H19.7188L27.4404 14.054H27.6833V33H31.4418V6.81818H26.6478L18.3125 27.1705H18.0057L9.6705 6.81818H4.87646Z" fill="white"/>
<path d="M45.3413 33.3963C49.624 33.3963 52.6538 31.2869 53.5231 28.0909L49.9052 27.4389C49.2149 29.2926 47.553 30.2386 45.3797 30.2386C42.1069 30.2386 39.9081 28.1165 39.8058 24.3324H53.766V22.9773C53.766 15.8821 49.5217 13.108 45.0728 13.108C39.6013 13.108 35.9961 17.2756 35.9961 23.3097C35.9961 29.4077 39.5501 33.3963 45.3413 33.3963ZM39.8186 21.4688C39.972 18.6818 41.9919 16.2656 45.0984 16.2656C48.0643 16.2656 50.0075 18.4645 50.0203 21.4688H39.8186Z" fill="white"/>
<path d="M72.7216 18.1577C71.929 15.1023 69.5384 13.108 65.2941 13.108C60.858 13.108 57.7131 15.4474 57.7131 18.9247C57.7131 21.7116 59.4006 23.5653 63.0824 24.3835L66.4063 25.1122C68.2983 25.5341 69.1804 26.3778 69.1804 27.6051C69.1804 29.1264 67.5569 30.3153 65.0512 30.3153C62.7628 30.3153 61.2927 29.331 60.8324 27.4006L57.1378 27.9631C57.777 31.4403 60.6662 33.3963 65.0768 33.3963C69.8196 33.3963 73.1052 30.8778 73.1052 27.3239C73.1052 24.5497 71.341 22.8366 67.7358 22.0057L64.6165 21.2898C62.456 20.7784 61.5228 20.0497 61.5356 18.7202C61.5228 17.2116 63.1591 16.1378 65.3324 16.1378C67.7103 16.1378 68.8097 17.4545 69.2571 18.7713L72.7216 18.1577Z" fill="white"/>
<path d="M86.4741 13.3636H82.4471V8.65909H78.6247V13.3636H75.7483V16.4318H78.6247V28.027C78.6119 31.5938 81.3349 33.3196 84.352 33.2557C85.5665 33.2429 86.3846 33.0128 86.8321 32.8466L86.1417 29.6889C85.8861 29.7401 85.413 29.8551 84.7994 29.8551C83.5593 29.8551 82.4471 29.446 82.4471 27.2344V16.4318H86.4741V13.3636Z" fill="white"/>
<path d="M98.7628 33.3963C104.298 33.3963 107.916 29.3438 107.916 23.2713C107.916 17.1605 104.298 13.108 98.7628 13.108C93.2273 13.108 89.6094 17.1605 89.6094 23.2713C89.6094 29.3438 93.2273 33.3963 98.7628 33.3963ZM98.7756 30.1875C95.1577 30.1875 93.4702 27.0298 93.4702 23.2585C93.4702 19.5 95.1577 16.304 98.7756 16.304C102.368 16.304 104.055 19.5 104.055 23.2585C104.055 27.0298 102.368 30.1875 98.7756 30.1875Z" fill="white"/>
<path d="M112.057 9H113.114V5.59091H115.023C115.099 5.59091 115.172 5.59091 115.244 5.58665L117.085 9H118.313L116.34 5.39489C117.452 5.01562 117.972 4.10795 117.972 2.94886C117.972 1.40625 117.051 0.272727 115.006 0.272727H112.057V9ZM113.114 4.63636V1.21023H114.972C116.386 1.21023 116.932 1.90057 116.932 2.94886C116.932 3.99716 116.386 4.63636 114.989 4.63636H113.114Z" fill="white"/>
<path d="M123.721 6.32386C123.721 7.55114 122.784 8.11364 122.034 8.11364C121.199 8.11364 120.602 7.5 120.602 6.54545V2.45455H119.596V6.61364C119.596 8.28409 120.483 9.08523 121.71 9.08523C122.699 9.08523 123.346 8.55682 123.653 7.89205H123.721V9H124.727V2.45455H123.721V6.32386Z" fill="white"/>
<path d="M131.205 3.92045C130.89 2.99148 130.183 2.36932 128.887 2.36932C127.506 2.36932 126.484 3.15341 126.484 4.26136C126.484 5.16477 127.021 5.76989 128.222 6.05114L129.313 6.30682C129.974 6.46023 130.285 6.77557 130.285 7.22727C130.285 7.78977 129.688 8.25 128.751 8.25C127.928 8.25 127.413 7.89631 127.234 7.19318L126.279 7.43182C126.514 8.54403 127.43 9.13636 128.768 9.13636C130.289 9.13636 131.325 8.3054 131.325 7.17614C131.325 6.2642 130.754 5.68892 129.586 5.40341L128.614 5.16477C127.839 4.97301 127.489 4.71307 127.489 4.21023C127.489 3.64773 128.086 3.23864 128.887 3.23864C129.765 3.23864 130.127 3.72443 130.302 4.17614L131.205 3.92045Z" fill="white"/>
<path d="M137.475 3.92045C137.159 2.99148 136.452 2.36932 135.157 2.36932C133.776 2.36932 132.753 3.15341 132.753 4.26136C132.753 5.16477 133.29 5.76989 134.492 6.05114L135.583 6.30682C136.243 6.46023 136.554 6.77557 136.554 7.22727C136.554 7.78977 135.958 8.25 135.02 8.25C134.198 8.25 133.682 7.89631 133.503 7.19318L132.549 7.43182C132.783 8.54403 133.699 9.13636 135.037 9.13636C136.559 9.13636 137.594 8.3054 137.594 7.17614C137.594 6.2642 137.023 5.68892 135.856 5.40341L134.884 5.16477C134.108 4.97301 133.759 4.71307 133.759 4.21023C133.759 3.64773 134.356 3.23864 135.157 3.23864C136.034 3.23864 136.397 3.72443 136.571 4.17614L137.475 3.92045Z" fill="white"/>
<path d="M139.108 9H140.114V2.45455H139.108V9ZM139.619 1.36364C140.011 1.36364 140.335 1.05682 140.335 0.681818C140.335 0.306818 140.011 0 139.619 0C139.227 0 138.903 0.306818 138.903 0.681818C138.903 1.05682 139.227 1.36364 139.619 1.36364Z" fill="white"/>
<path d="M143.882 9.15341C145.024 9.15341 145.62 8.53977 145.825 8.11364H145.876V9H146.882V4.6875C146.882 2.60795 145.297 2.36932 144.461 2.36932C143.473 2.36932 142.348 2.71023 141.836 3.90341L142.791 4.24432C143.012 3.76705 143.537 3.25568 144.495 3.25568C145.42 3.25568 145.876 3.74574 145.876 4.58523V4.61932C145.876 5.10511 145.382 5.0625 144.189 5.21591C142.974 5.37358 141.649 5.64205 141.649 7.14205C141.649 8.42045 142.637 9.15341 143.882 9.15341ZM144.035 8.25C143.234 8.25 142.655 7.89205 142.655 7.19318C142.655 6.42614 143.353 6.1875 144.137 6.08523C144.564 6.03409 145.706 5.91477 145.876 5.71023V6.63068C145.876 7.44886 145.228 8.25 144.035 8.25Z" fill="white"/>
</g>
<defs>
<filter id="filter0_d" x="0.876465" y="0" width="150.005" height="41.3963" filterUnits="userSpaceOnUse" color-interpolation-filters="sRGB">
<feFlood flood-opacity="0" result="BackgroundImageFix"/>
<feColorMatrix in="SourceAlpha" type="matrix" values="0 0 0 0 0 0 0 0 0 0 0 0 0 0 0 0 0 0 127 0"/>
<feOffset dy="4"/>
<feGaussianBlur stdDeviation="2"/>
<feColorMatrix type="matrix" values="0 0 0 0 0 0 0 0 0 0 0 0 0 0 0 0 0 0 0.25 0"/>
<feBlend mode="normal" in2="BackgroundImageFix" result="effect1_dropShadow"/>
<feBlend mode="normal" in="SourceGraphic" in2="effect1_dropShadow" result="shape"/>
</filter>
</defs>
</svg>
